<svg xmlns="http://www.w3.org/2000/svg" viewBox="0 0 1024 1024">
  <defs>
    <linearGradient id="bg" x1="128" y1="96" x2="896" y2="928" gradientUnits="userSpaceOnUse">
      <stop offset="0" stop-color="#0EA5A0"/>
      <stop offset="1" stop-color="#0D7A76"/>
    </linearGradient>
  </defs>

  <rect width="1024" height="1024" fill="url(#bg)"/>

  <g fill="none" stroke="#F9FAFB" stroke-linecap="round" stroke-linejoin="round">
    <path
      d="M265 324
         H750
         C830 324 895 389 895 469
         C895 549 830 614 750 614
         H478
         C454 614 431 622 412 637
         L350 685
         C331 700 304 683 310 660
         L322 614
         H265
         C185 614 120 549 120 469
         C120 389 185 324 265 324Z"
      stroke-width="42"/>

    <g stroke-width="38">
      <line x1="255" y1="460" x2="255" y2="512"/>
      <line x1="326" y1="416" x2="326" y2="556"/>
      <line x1="397" y1="368" x2="397" y2="584"/>
      <line x1="468" y1="416" x2="468" y2="556"/>
      <line x1="539" y1="460" x2="539" y2="512"/>
    </g>

    <g stroke-width="30">
      <line x1="628" y1="416" x2="790" y2="416"/>
      <line x1="628" y1="498" x2="828" y2="498"/>
      <line x1="628" y1="574" x2="750" y2="574"/>
    </g>
  </g>

  <circle cx="827" cy="574" r="20" fill="#F9FAFB"/>
</svg>
