<svg xmlns="http://www.w3.org/2000/svg" viewBox="0 0 1024 1024">
  <g transform="translate(512 512) scale(0.85) translate(-512 -537)">
    <path d="M 372 250&#xA;  C 462 250, 524 312, 524 388&#xA;  C 524 444, 488 484, 440 502&#xA;  C 416 510, 396 524, 384 538&#xA;  C 374 550, 360 538, 350 522&#xA;  C 320 484, 232 470, 232 380&#xA;  C 232 308, 292 250, 372 250 Z" fill="#ffffff"></path>
    <path d="M 656 560&#xA;  C 736 560, 792 614, 792 682&#xA;  C 792 730, 762 766, 720 782&#xA;  C 700 790, 684 802, 674 814&#xA;  C 666 824, 654 814, 646 800&#xA;  C 622 768, 542 758, 542 678&#xA;  C 542 614, 588 560, 656 560 Z" fill="#ffffff"></path>
  </g>
</svg>