<svg xmlns="http://www.w3.org/2000/svg" viewBox="0 0 432 432">
  <g fill="none" stroke="white" stroke-linecap="round" stroke-linejoin="round">
    <path
      d="M112 137
         H316
         C350 137 378 164 378 198
         C378 232 350 259 316 259
         H202
         C192 259 182 263 174 269
         L148 289
         C140 295 128 288 131 278
         L136 259
         H112
         C78 259 51 232 51 198
         C51 164 78 137 112 137Z"
      stroke-width="18"/>

    <g stroke-width="16">
      <line x1="108" y1="194" x2="108" y2="216"/>
      <line x1="138" y1="176" x2="138" y2="235"/>
      <line x1="168" y1="155" x2="168" y2="247"/>
      <line x1="198" y1="176" x2="198" y2="235"/>
      <line x1="228" y1="194" x2="228" y2="216"/>
    </g>

    <g stroke-width="13">
      <line x1="265" y1="176" x2="334" y2="176"/>
      <line x1="265" y1="210" x2="350" y2="210"/>
      <line x1="265" y1="242" x2="317" y2="242"/>
    </g>
  </g>

  <circle cx="350" cy="242" r="8" fill="white"/>
</svg>
