<svg xmlns="http://www.w3.org/2000/svg" viewBox="0 0 1024 1024">
  <rect width="1024" height="1024" rx="229" ry="229" fill="#fdf9f0"></rect>
  <line x1="120" y1="800" x2="904" y2="800" stroke="#0D7A76" stroke-opacity="0.18" stroke-width="3"></line>
  <path d="M 372 360 C 460 420, 564 604, 656 664" stroke="#0EA5A0" stroke-opacity="0.55" stroke-width="6" stroke-linecap="round" fill="none"></path>
  <path d="M 372 250&#xA;  C 462 250, 524 312, 524 388&#xA;  C 524 444, 488 484, 440 502&#xA;  C 416 510, 396 524, 384 538&#xA;  C 374 550, 360 538, 350 522&#xA;  C 320 484, 232 470, 232 380&#xA;  C 232 308, 292 250, 372 250 Z" fill="#0D7A76"></path>
  <path d="M 656 560&#xA;  C 736 560, 792 614, 792 682&#xA;  C 792 730, 762 766, 720 782&#xA;  C 700 790, 684 802, 674 814&#xA;  C 666 824, 654 814, 646 800&#xA;  C 622 768, 542 758, 542 678&#xA;  C 542 614, 588 560, 656 560 Z" fill="#0EA5A0"></path>
</svg>